<svg xmlns="http://www.w3.org/2000/svg" width="1400" height="900"><rect width="100%" height="100%" fill="#0f172a"/><text x="20" y="30" fill="#94a3b8" font-size="14">frontend-payment.svg</text><line x1="100" y1="160" x2="260" y2="160" stroke="#475569" stroke-width="1"/><line x1="100" y1="160" x2="260" y2="160" stroke="#475569" stroke-width="1"/><line x1="260" y1="160" x2="420" y2="160" stroke="#475569" stroke-width="1"/><line x1="100" y1="160" x2="260" y2="160" stroke="#475569" stroke-width="1"/><line x1="260" y1="160" x2="420" y2="160" stroke="#475569" stroke-width="1"/><line x1="100" y1="160" x2="260" y2="160" stroke="#475569" stroke-width="1"/><line x1="100" y1="160" x2="260" y2="160" stroke="#475569" stroke-width="1"/><line x1="260" y1="160" x2="580" y2="160" stroke="#475569" stroke-width="1"/><line x1="100" y1="160" x2="260" y2="160" stroke="#475569" stroke-width="1"/><line x1="260" y1="160" x2="740" y2="160" stroke="#475569" stroke-width="1"/><line x1="100" y1="160" x2="260" y2="160" stroke="#475569" stroke-width="1"/><line x1="260" y1="160" x2="900" y2="160" stroke="#475569" stroke-width="1"/><line x1="100" y1="160" x2="260" y2="160" stroke="#475569" stroke-width="1"/><line x1="260" y1="160" x2="100" y2="250" stroke="#475569" stroke-width="1"/><line x1="100" y1="160" x2="260" y2="160" stroke="#475569" stroke-width="1"/><line x1="260" y1="160" x2="260" y2="250" stroke="#475569" stroke-width="1"/><line x1="100" y1="160" x2="260" y2="160" stroke="#475569" stroke-width="1"/><line x1="260" y1="160" x2="420" y2="250" stroke="#475569" stroke-width="1"/><line x1="100" y1="160" x2="260" y2="160" stroke="#475569" stroke-width="1"/><line x1="100" y1="160" x2="260" y2="160" stroke="#475569" stroke-width="1"/><line x1="580" y1="250" x2="260" y2="160" stroke="#475569" stroke-width="1"/><line x1="580" y1="250" x2="260" y2="160" stroke="#475569" stroke-width="1"/><line x1="260" y1="160" x2="420" y2="160" stroke="#475569" stroke-width="1"/><line x1="580" y1="250" x2="260" y2="160" stroke="#475569" stroke-width="1"/><line x1="260" y1="160" x2="420" y2="160" stroke="#475569" stroke-width="1"/><line x1="580" y1="250" x2="260" y2="160" stroke="#475569" stroke-width="1"/><line x1="580" y1="250" x2="260" y2="160" stroke="#475569" stroke-width="1"/><line x1="260" y1="160" x2="580" y2="160" stroke="#475569" stroke-width="1"/><line x1="580" y1="250" x2="260" y2="160" stroke="#475569" stroke-width="1"/><line x1="260" y1="160" x2="740" y2="160" stroke="#475569" stroke-width="1"/><line x1="580" y1="250" x2="260" y2="160" stroke="#475569" stroke-width="1"/><line x1="260" y1="160" x2="900" y2="160" stroke="#475569" stroke-width="1"/><line x1="580" y1="250" x2="260" y2="160" stroke="#475569" stroke-width="1"/><line x1="260" y1="160" x2="100" y2="250" stroke="#475569" stroke-width="1"/><line x1="580" y1="250" x2="260" y2="160" stroke="#475569" stroke-width="1"/><line x1="260" y1="160" x2="260" y2="250" stroke="#475569" stroke-width="1"/><line x1="580" y1="250" x2="260" y2="160" stroke="#475569" stroke-width="1"/><line x1="260" y1="160" x2="420" y2="250" stroke="#475569" stroke-width="1"/><line x1="580" y1="250" x2="260" y2="160" stroke="#475569" stroke-width="1"/><line x1="580" y1="250" x2="260" y2="160" stroke="#475569" stroke-width="1"/><line x1="740" y1="250" x2="260" y2="160" stroke="#475569" stroke-width="1"/><line x1="740" y1="250" x2="260" y2="160" stroke="#475569" stroke-width="1"/><line x1="260" y1="160" x2="420" y2="160" stroke="#475569" stroke-width="1"/><line x1="740" y1="250" x2="260" y2="160" stroke="#475569" stroke-width="1"/><line x1="260" y1="160" x2="420" y2="160" stroke="#475569" stroke-width="1"/><line x1="740" y1="250" x2="260" y2="160" stroke="#475569" stroke-width="1"/><line x1="740" y1="250" x2="260" y2="160" stroke="#475569" stroke-width="1"/><line x1="260" y1="160" x2="580" y2="160" stroke="#475569" stroke-width="1"/><line x1="740" y1="250" x2="260" y2="160" stroke="#475569" stroke-width="1"/><line x1="260" y1="160" x2="740" y2="160" stroke="#475569" stroke-width="1"/><line x1="740" y1="250" x2="260" y2="160" stroke="#475569" stroke-width="1"/><line x1="260" y1="160" x2="900" y2="160" stroke="#475569" stroke-width="1"/><line x1="740" y1="250" x2="260" y2="160" stroke="#475569" stroke-width="1"/><line x1="260" y1="160" x2="100" y2="250" stroke="#475569" stroke-width="1"/><line x1="740" y1="250" x2="260" y2="160" stroke="#475569" stroke-width="1"/><line x1="260" y1="160" x2="260" y2="250" stroke="#475569" stroke-width="1"/><line x1="740" y1="250" x2="260" y2="160" stroke="#475569" stroke-width="1"/><line x1="260" y1="160" x2="420" y2="250" stroke="#475569" stroke-width="1"/><line x1="740" y1="250" x2="260" y2="160" stroke="#475569" stroke-width="1"/><line x1="740" y1="250" x2="260" y2="160" stroke="#475569" stroke-width="1"/><line x1="900" y1="250" x2="260" y2="160" stroke="#475569" stroke-width="1"/><line x1="900" y1="250" x2="260" y2="160" stroke="#475569" stroke-width="1"/><line x1="260" y1="160" x2="420" y2="160" stroke="#475569" stroke-width="1"/><line x1="900" y1="250" x2="260" y2="160" stroke="#475569" stroke-width="1"/><line x1="260" y1="160" x2="420" y2="160" stroke="#475569" stroke-width="1"/><line x1="900" y1="250" x2="260" y2="160" stroke="#475569" stroke-width="1"/><line x1="900" y1="250" x2="260" y2="160" stroke="#475569" stroke-width="1"/><line x1="260" y1="160" x2="580" y2="160" stroke="#475569" stroke-width="1"/><line x1="900" y1="250" x2="260" y2="160" stroke="#475569" stroke-width="1"/><line x1="260" y1="160" x2="740" y2="160" stroke="#475569" stroke-width="1"/><line x1="900" y1="250" x2="260" y2="160" stroke="#475569" stroke-width="1"/><line x1="260" y1="160" x2="900" y2="160" stroke="#475569" stroke-width="1"/><line x1="900" y1="250" x2="260" y2="160" stroke="#475569" stroke-width="1"/><line x1="260" y1="160" x2="100" y2="250" stroke="#475569" stroke-width="1"/><line x1="900" y1="250" x2="260" y2="160" stroke="#475569" stroke-width="1"/><line x1="260" y1="160" x2="260" y2="250" stroke="#475569" stroke-width="1"/><line x1="900" y1="250" x2="260" y2="160" stroke="#475569" stroke-width="1"/><line x1="260" y1="160" x2="420" y2="250" stroke="#475569" stroke-width="1"/><line x1="900" y1="250" x2="260" y2="160" stroke="#475569" stroke-width="1"/><line x1="900" y1="250" x2="260" y2="160" stroke="#475569" stroke-width="1"/><line x1="260" y1="160" x2="420" y2="160" stroke="#475569" stroke-width="1"/><line x1="260" y1="160" x2="420" y2="160" stroke="#475569" stroke-width="1"/><line x1="260" y1="160" x2="580" y2="160" stroke="#475569" stroke-width="1"/><line x1="260" y1="160" x2="740" y2="160" stroke="#475569" stroke-width="1"/><line x1="260" y1="160" x2="900" y2="160" stroke="#475569" stroke-width="1"/><line x1="260" y1="160" x2="100" y2="250" stroke="#475569" stroke-width="1"/><line x1="260" y1="160" x2="260" y2="250" stroke="#475569" stroke-width="1"/><line x1="260" y1="160" x2="420" y2="250" stroke="#475569" stroke-width="1"/><line x1="100" y1="340" x2="260" y2="340" stroke="#475569" stroke-width="1"/><line x1="100" y1="340" x2="420" y2="340" stroke="#475569" stroke-width="1"/><line x1="100" y1="340" x2="580" y2="340" stroke="#475569" stroke-width="1"/><line x1="100" y1="340" x2="740" y2="340" stroke="#475569" stroke-width="1"/><line x1="100" y1="340" x2="900" y2="340" stroke="#475569" stroke-width="1"/><line x1="100" y1="340" x2="100" y2="430" stroke="#475569" stroke-width="1"/><line x1="100" y1="340" x2="260" y2="430" stroke="#475569" stroke-width="1"/><line x1="100" y1="340" x2="260" y2="340" stroke="#475569" stroke-width="1"/><line x1="100" y1="340" x2="420" y2="340" stroke="#475569" stroke-width="1"/><line x1="100" y1="340" x2="580" y2="340" stroke="#475569" stroke-width="1"/><line x1="100" y1="340" x2="740" y2="340" stroke="#475569" stroke-width="1"/><line x1="100" y1="340" x2="900" y2="340" stroke="#475569" stroke-width="1"/><line x1="100" y1="340" x2="100" y2="430" stroke="#475569" stroke-width="1"/><line x1="100" y1="340" x2="260" y2="430" stroke="#475569" stroke-width="1"/><line x1="100" y1="340" x2="260" y2="340" stroke="#475569" stroke-width="1"/><line x1="100" y1="340" x2="420" y2="340" stroke="#475569" stroke-width="1"/><line x1="100" y1="340" x2="580" y2="340" stroke="#475569" stroke-width="1"/><line x1="100" y1="340" x2="740" y2="340" stroke="#475569" stroke-width="1"/><line x1="100" y1="340" x2="900" y2="340" stroke="#475569" stroke-width="1"/><line x1="100" y1="340" x2="100" y2="430" stroke="#475569" stroke-width="1"/><line x1="100" y1="340" x2="260" y2="430" stroke="#475569" stroke-width="1"/><line x1="100" y1="340" x2="260" y2="340" stroke="#475569" stroke-width="1"/><line x1="100" y1="340" x2="420" y2="340" stroke="#475569" stroke-width="1"/><line x1="100" y1="340" x2="580" y2="340" stroke="#475569" stroke-width="1"/><line x1="100" y1="340" x2="740" y2="340" stroke="#475569" stroke-width="1"/><line x1="100" y1="340" x2="900" y2="340" stroke="#475569" stroke-width="1"/><line x1="100" y1="340" x2="100" y2="430" stroke="#475569" stroke-width="1"/><line x1="100" y1="340" x2="260" y2="430" stroke="#475569" stroke-width="1"/><circle cx="100" cy="70" r="7" fill="#4ade80"/><text x="110" y="74" fill="#e2e8f0" font-size="8">GET /api/v1/dashboard/ex</text><circle cx="260" cy="70" r="7" fill="#4ade80"/><text x="270" y="74" fill="#e2e8f0" font-size="8">POST /api/v1/invoices/:i</text><circle cx="420" cy="70" r="7" fill="#4ade80"/><text x="430" y="74" fill="#e2e8f0" font-size="8">POST /api/v1/invoices/:i</text><circle cx="580" cy="70" r="7" fill="#4ade80"/><text x="590" y="74" fill="#e2e8f0" font-size="8">POST /api/v1/invoices/:i</text><circle cx="740" cy="70" r="7" fill="#38bdf8"/><text x="750" y="74" fill="#e2e8f0" font-size="8">MerchantPaymentPortalCom</text><circle cx="900" cy="70" r="7" fill="#4ade80"/><text x="910" y="74" fill="#e2e8f0" font-size="8">GET /api/v1/operations/f</text><circle cx="100" cy="160" r="7" fill="#38bdf8"/><text x="110" y="164" fill="#e2e8f0" font-size="8">PaymentLinkCreateCompone</text><circle cx="260" cy="160" r="7" fill="#a78bfa"/><text x="270" y="164" fill="#e2e8f0" font-size="8">PaymentLinksApiService</text><circle cx="420" cy="160" r="7" fill="#4ade80"/><text x="430" y="164" fill="#e2e8f0" font-size="8">GET /api/v1/payment-link</text><circle cx="580" cy="160" r="7" fill="#4ade80"/><text x="590" y="164" fill="#e2e8f0" font-size="8">PUT /api/v1/payment-link</text><circle cx="740" cy="160" r="7" fill="#4ade80"/><text x="750" y="164" fill="#e2e8f0" font-size="8">POST /api/v1/payment-lin</text><circle cx="900" cy="160" r="7" fill="#4ade80"/><text x="910" y="164" fill="#e2e8f0" font-size="8">POST /api/v1/payment-lin</text><circle cx="100" cy="250" r="7" fill="#4ade80"/><text x="110" y="254" fill="#e2e8f0" font-size="8">POST /api/v1/payment-lin</text><circle cx="260" cy="250" r="7" fill="#4ade80"/><text x="270" y="254" fill="#e2e8f0" font-size="8">POST /api/v1/payment-lin</text><circle cx="420" cy="250" r="7" fill="#4ade80"/><text x="430" y="254" fill="#e2e8f0" font-size="8">GET /api/v1/payment-link</text><circle cx="580" cy="250" r="7" fill="#38bdf8"/><text x="590" y="254" fill="#e2e8f0" font-size="8">PaymentLinkDetailsCompon</text><circle cx="740" cy="250" r="7" fill="#38bdf8"/><text x="750" y="254" fill="#e2e8f0" font-size="8">PaymentLinkEditComponent</text><circle cx="900" cy="250" r="7" fill="#38bdf8"/><text x="910" y="254" fill="#e2e8f0" font-size="8">PaymentLinkListComponent</text><circle cx="100" cy="340" r="7" fill="#a78bfa"/><text x="110" y="344" fill="#e2e8f0" font-size="8">QrPaymentsApiService</text><circle cx="260" cy="340" r="7" fill="#4ade80"/><text x="270" y="344" fill="#e2e8f0" font-size="8">GET /api/v1/qr-payments/</text><circle cx="420" cy="340" r="7" fill="#4ade80"/><text x="430" y="344" fill="#e2e8f0" font-size="8">GET /api/v1/qr-payments/</text><circle cx="580" cy="340" r="7" fill="#4ade80"/><text x="590" y="344" fill="#e2e8f0" font-size="8">PUT /api/v1/qr-payments/</text><circle cx="740" cy="340" r="7" fill="#4ade80"/><text x="750" y="344" fill="#e2e8f0" font-size="8">POST /api/v1/qr-payments</text><circle cx="900" cy="340" r="7" fill="#4ade80"/><text x="910" y="344" fill="#e2e8f0" font-size="8">POST /api/v1/qr-payments</text><circle cx="100" cy="430" r="7" fill="#4ade80"/><text x="110" y="434" fill="#e2e8f0" font-size="8">POST /api/v1/qr-payments</text><circle cx="260" cy="430" r="7" fill="#4ade80"/><text x="270" y="434" fill="#e2e8f0" font-size="8">GET /api/v1/qr-payments/</text></svg>